<?xml version="1.0" encoding="utf-8"?>
<!-- Generator: Adobe Illustrator 23.0.1, SVG Export Plug-In . SVG Version: 6.00 Build 0)  -->
<svg version="1.1" id="Layer_1" xmlns="http://www.w3.org/2000/svg" xmlns:xlink="http://www.w3.org/1999/xlink" x="0px" y="0px"
	 viewBox="0 0 512 512" style="enable-background:new 0 0 512 512;" xml:space="preserve">
<style type="text/css">
	.st0{fill:#64B7B2;}
	.st1{fill:#00A79D;}
	.st2{fill:#DCC5A1;}
	.st3{fill:#EDD9B4;}
	.st4{fill-rule:evenodd;clip-rule:evenodd;fill:#BC9F82;}
	.st5{fill-rule:evenodd;clip-rule:evenodd;fill:#4B1F0D;}
	.st6{fill-rule:evenodd;clip-rule:evenodd;fill:#DCC5A1;}
	.st7{fill-rule:evenodd;clip-rule:evenodd;fill:#EDD9B4;}
	.st8{fill:#010101;}
	.st9{opacity:0.3;}
	.st10{clip-path:url(#SVGID_2_);fill:#5C3915;}
	.st11{clip-path:url(#SVGID_4_);fill:#5C3915;}
	.st12{fill-rule:evenodd;clip-rule:evenodd;fill:#EDEDED;}
	.st13{opacity:0.1;}
	.st14{clip-path:url(#SVGID_6_);fill-rule:evenodd;clip-rule:evenodd;fill:#010101;}
	.st15{fill:#342214;}
	.st16{fill:#FFFFFF;}
	.st17{fill:#BE1E2D;}
	.st18{fill:#200D45;}
</style>
<g>
	<path class="st0" d="M113.6,362.2c9-8,31.9-25.8,108-59.2l69.7,0.4c76.1,33.4,98.2,50.7,107.2,58.7c3.5,3.1,6.6,8.3,9.4,15
		c21.3-30.2,33.7-67,33.7-106.8c0.1-102.5-83-185.6-185.5-185.6S70.5,167.9,70.5,270.4c0,39.8,12.5,76.6,33.7,106.8
		C107,370.5,110.1,365.2,113.6,362.2z"/>
	<path class="st1" d="M158.7,428.5c1-8.3,1.7-13.3,1.7-13.3s0,5.3,0,14.4c22.8,13.7,48.7,22.6,76.5,25.5l12.1-84.8l-9.6-14
		l16.7-16.9l15.9,16.8l-9.2,14.2l12.1,84.8c27.7-2.8,53.6-11.8,76.3-25.4c0-9,0-14.5,0-14.5s0.7,5.1,1.7,13.3
		c21.5-13.3,40.2-30.8,54.7-51.5c-2.8-6.6-5.9-11.9-9.4-15c-9-8-31.1-25.3-107.2-58.7l-69.7-0.4c-76.1,33.4-99,51.2-108,59.2
		c-3.5,3.1-6.5,8.3-9.4,15C118.7,397.8,137.2,415.2,158.7,428.5z"/>
	<g>
		<path class="st2" d="M219.3,239.2v83.6c10.1,11.9,23.3,18.1,36.7,18.2V205.3C237.6,205.3,219.3,216.6,219.3,239.2z"/>
		<path class="st3" d="M256,205.3V341c13.3,0.1,26.6-5.9,36.7-18.2v-83.6C292.6,216.6,274.3,205.3,256,205.3z"/>
	</g>
	<path class="st4" d="M292.6,235.8v56c-13.9,10.1-27.2,15.7-36.7,15.7c-9.4,0-22.8-5.7-36.7-15.7v-56
		C219.3,190.7,292.6,190.7,292.6,235.8"/>
	<path class="st5" d="M310.1,131.6c16.1,0,29.2-13.1,29.2-29.2s-13.1-29.2-29.2-29.2c-16.1,0-29.2,13.2-29.2,29.2
		C280.9,118.6,294,131.6,310.1,131.6"/>
	<path class="st5" d="M281.4,118.8c16.1,0,29.2-13.1,29.2-29.2s-13.1-29.2-29.2-29.2s-29.2,13.1-29.2,29.2S265.3,118.8,281.4,118.8"
		/>
	<path class="st5" d="M237.6,114.3c16.1,0,29.2-13.1,29.2-29.2S253.7,56,237.6,56s-29.2,13.1-29.2,29.2
		C208.4,101.2,221.5,114.3,237.6,114.3"/>
	<path class="st5" d="M198.3,128.6c16.1,0,29.2-13.2,29.2-29.2c0-16.1-13.1-29.2-29.2-29.2s-29.2,13.1-29.2,29.2
		S182.3,128.6,198.3,128.6"/>
	<path class="st5" d="M175.7,161.1c16.1,0,29.2-13.1,29.2-29.2s-13.1-29.2-29.2-29.2s-29.2,13.1-29.2,29.2
		C146.5,148,159.6,161.1,175.7,161.1"/>
	<path class="st5" d="M335,161.8c16.1,0,29.2-13.1,29.2-29.2S351,103.5,335,103.5c-16.1,0-29.2,13.1-29.2,29.2
		S318.9,161.8,335,161.8"/>
	<path class="st5" d="M336.5,202.6c16.1,0,29.2-13.1,29.2-29.2s-13.1-29.2-29.2-29.2s-29.2,13.1-29.2,29.2S320.5,202.6,336.5,202.6"
		/>
	<path class="st5" d="M315.4,251.7c16.1,0,29.2-13.1,29.2-29.2s-13.1-29.2-29.2-29.2s-29.2,13.1-29.2,29.2
		C286.2,238.6,299.3,251.7,315.4,251.7"/>
	<path class="st5" d="M173.4,198.1c16.1,0,29.2-13.1,29.2-29.2s-13.1-29.2-29.2-29.2s-29.2,13.1-29.2,29.2
		C144.3,185,157.4,198.1,173.4,198.1"/>
	<path class="st5" d="M194.6,255.5c16.1,0,29.2-13.1,29.2-29.2s-13.1-29.2-29.2-29.2s-29.2,13.1-29.2,29.2
		C165.4,242.4,178.5,255.5,194.6,255.5"/>
	<path class="st5" d="M332.4,230.6c16.1,0,29.2-13.1,29.2-29.2s-13.1-29.2-29.2-29.2s-29.2,13.1-29.2,29.2
		C303.1,217.4,316.3,230.6,332.4,230.6"/>
	<path class="st5" d="M177.7,228.5c16.1,0,29.2-13.1,29.2-29.2s-13.1-29.2-29.2-29.2s-29.2,13.1-29.2,29.2
		C148.5,215.3,161.6,228.5,177.7,228.5"/>
	<g>
		<path class="st6" d="M171.3,187.2c-2.9-2.2-6.1-3-8.9-2.2c-6.5,2.2-8.7,12.9-5,24c3.7,11.2,11.9,18.5,18.3,16.3
			c0.4-0.2,0.9-0.3,1.3-0.6c3.1,12.7,6.5,21.9,8.3,24.4c8.9,13.1,50.8,47.6,70.7,47.6V89C182.6,89,168.7,142,171.3,187.2z"/>
		<path class="st7" d="M350.9,185.1c-3.3-1.1-7,0.3-10.4,3.4C343.5,143,330,89,256,89l0,0v208l0,0c19.9,0,61.9-34.6,70.7-47.6
			c1.8-2.7,5.4-12.1,8.5-25.3c0.8,0.6,1.5,1.1,2.5,1.4c6.5,2.2,14.6-5.2,18.3-16.3C359.6,198.1,357.4,187.3,350.9,185.1z"/>
	</g>
	<path class="st5" d="M245.9,139.2c16.1,0,29.2-13.1,29.2-29.2S262,80.9,245.9,80.9s-29.2,13.1-29.2,29.2
		C216.7,126.1,229.8,139.2,245.9,139.2"/>
	<path class="st5" d="M285.9,137.7c16.1,0,29.2-13.1,29.2-29.2S302,79.4,285.9,79.4s-29.2,13.1-29.2,29.2
		C256.7,124.6,269.9,137.7,285.9,137.7"/>
	<path class="st5" d="M216.5,148.3c16.1,0,29.2-13.1,29.2-29.2S232.6,90,216.5,90s-29.2,13.1-29.2,29.2
		C187.3,135.2,200.4,148.3,216.5,148.3"/>
	<path class="st5" d="M194.8,158.5c13.7,0,24.9-11.2,24.9-24.9c0-13.7-11.2-24.9-24.9-24.9s-24.9,11.2-24.9,24.9
		C169.9,147.3,181.1,158.5,194.8,158.5"/>
	<path class="st5" d="M309.4,155.8c16.1,0,29.2-13.1,29.2-29.2s-13.1-29.2-29.2-29.2s-29.2,13.1-29.2,29.2
		C280.1,142.7,293.3,155.8,309.4,155.8"/>
	<path class="st5" d="M333,175.6c11.4,0,20.6-9.3,20.6-20.6c0-11.4-9.3-20.6-20.6-20.6c-11.4,0-20.6,9.3-20.6,20.6
		C312.5,166.4,321.7,175.6,333,175.6"/>
	<path class="st5" d="M181.5,179.6c11,0,20-8.9,20-20c0-11-8.9-20-20-20s-20,8.9-20,20C161.6,170.6,170.5,179.6,181.5,179.6"/>
	<path class="st5" d="M177.4,193.1c7.1,0,12.7-5.8,12.7-12.7c0-7.1-5.8-12.7-12.7-12.7c-7.1,0-12.7,5.8-12.7,12.7
		C164.6,187.5,170.3,193.1,177.4,193.1"/>
	<path class="st5" d="M336.7,194.7c7.1,0,12.7-5.8,12.7-12.7c0-7.1-5.8-12.7-12.7-12.7c-7.1,0-12.7,5.8-12.7,12.7
		C323.9,188.9,329.7,194.7,336.7,194.7"/>
	<path class="st5" d="M178.9,204.5c5,0,8.9-4,8.9-8.9s-4-8.9-8.9-8.9s-8.9,4-8.9,8.9C169.9,200.5,174,204.5,178.9,204.5"/>
	<path class="st5" d="M335.2,203.7c5,0,8.9-4,8.9-8.9c0-4.9-4-8.9-8.9-8.9c-4.9,0-8.9,4-8.9,8.9
		C326.3,199.7,330.2,203.7,335.2,203.7"/>
	<path class="st8" d="M336.6,183.6c-2.3-1.8-24-9.3-32.3-9.6c0,0-18.6-2.2-27.8,2.1c-9.2,4.2-11.1,3.6-20,4c0,0-0.3,0-0.9,0
		c-0.6,0-0.9,0-0.9,0c-8.9-0.4-10.8,0.2-20-4c-9.2-4.2-27.8-2.1-27.8-2.1c-8.3,0.2-29.9,7.7-32.3,9.6c-2.3,1.8,0,4.7,0,4.7
		c9.4-0.8,10.6,15.1,10.6,15.1c1.1,4.3,2.7,8.2,5.2,11.8c3.1,4.5,7.5,8.1,12.6,10c4.9,1.8,9.5,1.9,14.7,1.9
		c6.8-0.1,13.1-1.8,18.2-6.2c9.6-8,12.8-28.8,12.8-28.8c-1.3-0.6-1.4-3-1.4-3c-0.1-3.5,5.5-3.9,7.3-3.9c0.3,0,0.5,0,0.9,0
		c0.3,0,0.6,0,0.9,0c1.7,0,7.4,0.3,7.3,3.9c0,0-0.1,2.4-1.4,3c0,0,3.4,20.8,12.8,28.8c5.2,4.3,11.5,6.1,18.2,6.2
		c5.2,0.1,9.8-0.1,14.7-1.9c5.2-1.9,9.6-5.5,12.6-10c2.5-3.6,4.1-7.6,5.2-11.8c0,0,1.2-15.9,10.7-15.1
		C336.6,188.3,338.9,185.4,336.6,183.6 M242.7,199.8c-1.7,12.1-4.9,18.5-12.6,22.1c-7.8,3.6-14.6,3-14.6,3s-6.6,0.6-14.5-3
		c-7.8-3.6-10.8-10-12.5-22.1c-0.3-2.1-0.5-4.1-0.5-6.2c0.1-5.7,2.8-12,8.3-14.5c3.4-1.5,8.1-2.1,11.8-2.3c2.4-0.2,4.9-0.3,7.3-0.3
		c0.8,0,1.5,0.1,2.3,0.2c6.3,0.5,13.9,0.5,19.3,4.1c0.9,0.7,1.9,1.4,2.8,2.3C243.8,187.6,243.6,194.1,242.7,199.8 M322.6,199.8
		c-1.7,12.1-4.6,18.5-12.5,22.1s-14.5,3-14.5,3s-6.8,0.6-14.6-3s-10.9-10-12.6-22.1c-0.8-5.7-1.1-12.2,3-16.7
		c0.9-0.9,1.7-1.6,2.8-2.3c5.4-3.6,13-3.6,19.3-4.1c0.8-0.1,1.5-0.2,2.2-0.2c2.4,0,4.9,0.2,7.3,0.3c3.7,0.3,8.4,0.8,11.8,2.3
		c5.4,2.5,8.3,8.8,8.3,14.5C323.2,195.6,323,197.7,322.6,199.8"/>
	<g class="st9">
		<g>
			<g>
				<defs>
					<rect id="SVGID_1_" x="188" y="176.4" width="55.2" height="48.4"/>
				</defs>
				<clipPath id="SVGID_2_">
					<use xlink:href="#SVGID_1_"  style="overflow:visible;"/>
				</clipPath>
				<path class="st10" d="M242.7,199.8c-1.7,12.1-4.9,18.5-12.6,22.1c-7.8,3.6-14.6,3-14.6,3s-6.6,0.6-14.5-3
					c-7.8-3.6-10.8-10-12.5-22.1c-0.3-2.1-0.5-4.1-0.5-6.2c0.1-5.7,2.8-12,8.3-14.5c3.4-1.5,8.1-2.1,11.8-2.3
					c2.4-0.2,4.9-0.3,7.3-0.3c0.8,0,1.5,0.1,2.3,0.2c6.3,0.5,13.9,0.5,19.3,4.1c0.9,0.7,1.9,1.4,2.8,2.3
					C243.8,187.6,243.6,194.1,242.7,199.8"/>
			</g>
		</g>
	</g>
	<g class="st9">
		<g>
			<g>
				<defs>
					<rect id="SVGID_3_" x="267.9" y="176.4" width="55.2" height="48.4"/>
				</defs>
				<clipPath id="SVGID_4_">
					<use xlink:href="#SVGID_3_"  style="overflow:visible;"/>
				</clipPath>
				<path class="st11" d="M322.6,199.8c-1.7,12.1-4.6,18.5-12.5,22.1s-14.5,3-14.5,3s-6.8,0.6-14.6-3s-10.9-10-12.6-22.1
					c-0.8-5.7-1.1-12.2,3-16.7c0.9-0.9,1.7-1.6,2.8-2.3c5.4-3.6,13-3.6,19.3-4.1c0.8-0.1,1.5-0.2,2.2-0.2c2.4,0,4.9,0.2,7.3,0.3
					c3.7,0.3,8.4,0.8,11.8,2.3c5.4,2.5,8.3,8.8,8.3,14.5C323.2,195.6,323,197.7,322.6,199.8"/>
			</g>
		</g>
	</g>
	<g>
		<polygon class="st12" points="219.3,293.3 215.9,305.5 224.9,371 256,338.9 		"/>
		<polygon class="st12" points="292.6,293.6 295.5,305.3 287.1,371.7 256,338.9 		"/>
	</g>
	<g class="st13">
		<g>
			<g>
				<defs>
					<rect id="SVGID_5_" x="249" y="370.2" width="14" height="0.4"/>
				</defs>
				<clipPath id="SVGID_6_">
					<use xlink:href="#SVGID_5_"  style="overflow:visible;"/>
				</clipPath>
				<polygon class="st14" points="249.1,370.2 263,370.2 263,370.6 249.1,370.6 				"/>
			</g>
		</g>
	</g>
	<g>
		<path class="st15" d="M219.4,188.2c5.1,0,9.2,4.6,9.2,10.4c0,5.8-4.1,10.4-9.2,10.4s-9.2-4.6-9.2-10.4
			C210.3,192.8,214.4,188.2,219.4,188.2"/>
		<path class="st15" d="M293.9,188.2c5.1,0,9.2,4.6,9.2,10.4c0,5.8-4.1,10.4-9.2,10.4c-5.1,0-9.2-4.6-9.2-10.4
			C284.8,192.8,288.8,188.2,293.9,188.2"/>
		<path class="st16" d="M237.7,254c3.3,7.2,10.5,12.2,18.9,12.2c8.4,0,15.7-5,18.9-12.2H237.7z"/>
	</g>
	<path class="st17" d="M256,456L256,456L256,456z"/>
	<path class="st18" d="M158.7,428.5c0.6,0.3,1.2,0.7,1.7,1c0-8.9,0-14.4,0-14.4S159.8,420.2,158.7,428.5z"/>
	<path class="st18" d="M351.5,429.7c0.6-0.3,1.2-0.7,1.8-1.1c-1-8.3-1.7-13.3-1.7-13.3S351.5,420.6,351.5,429.7z"/>
	<path d="M263,370.2l9.3-14.1L256,338.9l-16.6,17.2l9.7,14.1L237,455.1c6.3,0.6,12.6,0.9,19.1,0.9l0,0c6.5,0,12.8-0.3,19.1-0.9
		L263,370.2z"/>
</g>
</svg>
